<?xml version="1.0" encoding="utf-8"?>
<!-- Generator: Adobe Illustrator 18.1.1, SVG Export Plug-In . SVG Version: 6.00 Build 0)  -->
<svg version="1.1" id="Layer_1" xmlns="http://www.w3.org/2000/svg" xmlns:xlink="http://www.w3.org/1999/xlink" x="0px" y="0px"
	 viewBox="0 0 1920 1080" enable-background="new 0 0 1920 1080" xml:space="preserve">
<polygon fill="#0C9447" stroke="#0C9447" stroke-miterlimit="10" points="198.6,1007 139.1,1007.2 168.7,955.5 "/>
<polygon fill="#C9D3CF" points="228.4,1058.7 168.8,1058.8 198.5,1007.2 "/>
<polygon fill="#C9D3CF" points="139.1,1007.3 198.6,1007.2 169,1058.8 "/>
<polygon fill="#0C9447" stroke="#0C9447" stroke-miterlimit="10" points="198.6,800.4 139.1,800.6 168.7,748.9 "/>
<polygon fill="#C9D3CF" points="228.4,852.1 168.8,852.2 198.5,800.6 "/>
<polygon fill="#C9D3CF" points="139.1,800.7 198.6,800.6 169,852.2 "/>
<polygon fill="#0C9447" stroke="#0C9447" stroke-miterlimit="10" points="288,955.4 228.4,955.5 258.1,903.9 "/>
<polygon fill="#C9D3CF" points="317.7,1007 258.2,1007.2 287.8,955.5 "/>
<polygon fill="#C9D3CF" points="228.4,955.7 288,955.5 258.3,1007.2 "/>
<polygon fill="#0C9447" stroke="#0C9447" stroke-miterlimit="10" points="377.3,1007 317.7,1007.2 347.4,955.5 "/>
<polygon fill="#C9D3CF" points="407.1,1058.7 347.5,1058.8 377.2,1007.2 "/>
<polygon fill="#C9D3CF" points="317.7,1007.3 377.3,1007.2 347.6,1058.8 "/>
<polygon fill="#0C9447" stroke="#0C9447" stroke-miterlimit="10" points="288,852.1 228.4,852.2 258.1,800.6 "/>
<polygon fill="#C9D3CF" points="317.7,903.7 258.2,903.9 287.8,852.2 "/>
<polygon fill="#C9D3CF" points="228.4,852.4 288,852.2 258.3,903.9 "/>
<polygon fill="#0C9447" stroke="#0C9447" stroke-miterlimit="10" points="377.3,903.7 317.7,903.9 347.4,852.2 "/>
<polygon fill="#C9D3CF" points="407.1,955.4 347.5,955.5 377.2,903.9 "/>
<polygon fill="#C9D3CF" points="317.7,904 377.3,903.9 347.6,955.5 "/>
<polygon fill="#0C9447" stroke="#0C9447" stroke-miterlimit="10" points="377.3,800.4 317.7,800.6 347.4,748.9 "/>
<polygon fill="#C9D3CF" points="407.1,852.1 347.5,852.2 377.2,800.6 "/>
<polygon fill="#C9D3CF" points="317.7,800.7 377.3,800.6 347.6,852.2 "/>
<polygon fill="#0C9447" stroke="#0C9447" stroke-miterlimit="10" points="466.6,852.1 407.1,852.2 436.7,800.6 "/>
<polygon fill="#C9D3CF" points="496.4,903.7 436.9,903.9 466.5,852.2 "/>
<polygon fill="#C9D3CF" points="407.1,852.4 466.6,852.2 437,903.9 "/>
<polygon fill="#0C9447" stroke="#0C9447" stroke-miterlimit="10" points="466.6,955.4 407.1,955.5 436.7,903.9 "/>
<polygon fill="#C9D3CF" points="496.4,1007 436.9,1007.2 466.5,955.5 "/>
<polygon fill="#C9D3CF" points="407.1,955.7 466.6,955.5 437,1007.2 "/>
<polygon fill="#0C9447" stroke="#0C9447" stroke-miterlimit="10" points="109.3,852.1 49.7,852.2 79.4,800.6 "/>
<polygon fill="#C9D3CF" points="139.1,903.7 79.5,903.9 109.2,852.2 "/>
<polygon fill="#C9D3CF" points="49.7,852.4 109.3,852.2 79.6,903.9 "/>
<polygon fill="#0C9447" stroke="#0C9447" stroke-miterlimit="10" points="198.6,903.7 139.1,903.9 168.7,852.2 "/>
<polygon fill="#C9D3CF" points="228.4,955.4 168.8,955.5 198.5,903.9 "/>
<polygon fill="#C9D3CF" points="139.1,904 198.6,903.9 169,955.5 "/>
<polygon fill="#0C9447" stroke="#0C9447" stroke-miterlimit="10" points="109.3,748.8 49.7,748.9 79.4,697.3 "/>
<polygon fill="#C9D3CF" points="139.1,800.4 79.5,800.6 109.2,748.9 "/>
<polygon fill="#C9D3CF" points="49.7,749.1 109.3,748.9 79.6,800.6 "/>
<polygon fill="#0C9447" stroke="#0C9447" stroke-miterlimit="10" points="198.6,697.1 139.1,697.3 168.7,645.6 "/>
<polygon fill="#C9D3CF" points="228.4,748.8 168.8,748.9 198.5,697.3 "/>
<polygon fill="#C9D3CF" points="139.1,697.4 198.6,697.3 169,748.9 "/>
<polygon fill="#0C9447" stroke="#0C9447" stroke-miterlimit="10" points="288,748.8 228.4,748.9 258.1,697.3 "/>
<polygon fill="#C9D3CF" points="317.7,800.4 258.2,800.6 287.8,748.9 "/>
<polygon fill="#C9D3CF" points="228.4,749.1 288,748.9 258.3,800.6 "/>
<polygon fill="#0C9447" stroke="#0C9447" stroke-miterlimit="10" points="109.3,645.5 49.7,645.6 79.4,594 "/>
<polygon fill="#C9D3CF" points="139.1,697.1 79.5,697.3 109.2,645.6 "/>
<polygon fill="#C9D3CF" points="49.7,645.8 109.3,645.6 79.6,697.3 "/>
<polygon fill="#0C9447" stroke="#0C9447" stroke-miterlimit="10" points="109.3,955.4 49.7,955.5 79.4,903.9 "/>
<polygon fill="#C9D3CF" points="139.1,1007 79.5,1007.2 109.2,955.5 "/>
<polygon fill="#C9D3CF" points="49.7,955.7 109.3,955.5 79.6,1007.2 "/>
<polygon fill="#0C9447" stroke="#0C9447" stroke-miterlimit="10" points="645.3,955.4 585.8,955.5 615.4,903.9 "/>
<polygon fill="#C9D3CF" points="675.1,1007 615.5,1007.2 645.2,955.5 "/>
<polygon fill="#C9D3CF" points="585.8,955.7 645.3,955.5 615.7,1007.2 "/>
<polygon fill="#0C9447" stroke="#0C9447" stroke-miterlimit="10" points="734.7,903.7 675.1,903.9 704.8,852.2 "/>
<polygon fill="#C9D3CF" points="764.4,955.4 704.9,955.5 734.5,903.9 "/>
<polygon fill="#C9D3CF" points="675.1,904 734.7,903.9 705,955.5 "/>
<polygon fill="#0C9447" stroke="#0C9447" stroke-miterlimit="10" points="556,1007 496.4,1007.2 526.1,955.5 "/>
<polygon fill="#C9D3CF" points="585.8,1058.7 526.2,1058.8 555.9,1007.2 "/>
<polygon fill="#C9D3CF" points="496.4,1007.3 556,1007.2 526.3,1058.8 "/>
<polygon fill="#C9D3CF" points="585.8,955.7 645.3,955.5 615.7,1007.2 "/>
<polygon fill="#0C9447" stroke="#0C9447" stroke-miterlimit="10" points="824,955.4 764.4,955.5 794.1,903.9 "/>
<polygon fill="#C9D3CF" points="853.8,1007 794.2,1007.2 823.9,955.5 "/>
<polygon fill="#C9D3CF" points="764.4,955.7 824,955.5 794.3,1007.2 "/>
<polygon fill="#0C9447" stroke="#0C9447" stroke-miterlimit="10" points="734.7,1007 675.1,1007.2 704.8,955.5 "/>
<polygon fill="#C9D3CF" points="764.4,1058.7 704.9,1058.8 734.5,1007.2 "/>
<polygon fill="#C9D3CF" points="675.1,1007.3 734.7,1007.2 705,1058.8 "/>
<polygon fill="#C9D3CF" points="764.4,852.1 704.9,852.2 734.5,800.6 "/>
<polygon fill="#C9D3CF" points="675.1,800.7 734.7,800.6 705,852.2 "/>
<polygon fill="#0C9447" stroke="#0C9447" stroke-miterlimit="10" points="824,852.1 764.4,852.2 794.1,800.6 "/>
<polygon fill="#C9D3CF" points="853.8,903.7 794.2,903.9 823.9,852.2 "/>
<polygon fill="#C9D3CF" points="764.4,852.4 824,852.2 794.3,903.9 "/>
<polygon fill="#C9D3CF" points="943.1,852.1 883.6,852.2 913.2,800.6 "/>
<polygon fill="#C9D3CF" points="853.8,800.7 913.3,800.6 883.7,852.2 "/>
<polygon fill="#0C9447" stroke="#0C9447" stroke-miterlimit="10" points="913.3,903.7 853.8,903.9 883.4,852.2 "/>
<polygon fill="#C9D3CF" points="943.1,955.4 883.6,955.5 913.2,903.9 "/>
<polygon fill="#C9D3CF" points="853.8,904 913.3,903.9 883.7,955.5 "/>
<polygon fill="#0C9447" stroke="#0C9447" stroke-miterlimit="10" points="913.3,1007 853.8,1007.2 883.4,955.5 "/>
<polygon fill="#C9D3CF" points="943.1,1058.7 883.6,1058.8 913.2,1007.2 "/>
<polygon fill="#C9D3CF" points="853.8,1007.3 913.3,1007.2 883.7,1058.8 "/>
<polygon fill="#C9D3CF" points="585.8,852.1 526.2,852.2 555.9,800.6 "/>
<polygon fill="#C9D3CF" points="496.4,800.7 556,800.6 526.3,852.2 "/>
<polygon fill="#0C9447" stroke="#0C9447" stroke-miterlimit="10" points="645.3,852.1 585.8,852.2 615.4,800.6 "/>
<polygon fill="#C9D3CF" points="675.1,903.7 615.5,903.9 645.2,852.2 "/>
<polygon fill="#C9D3CF" points="585.8,852.4 645.3,852.2 615.7,903.9 "/>
<polygon fill="#0C9447" stroke="#0C9447" stroke-miterlimit="10" points="1092,1007 1032.4,1007.2 1062.1,955.5 "/>
<polygon fill="#C9D3CF" points="1121.8,1058.7 1062.2,1058.8 1091.9,1007.2 "/>
<polygon fill="#C9D3CF" points="1032.4,1007.3 1092,1007.2 1062.4,1058.8 "/>
<polygon fill="#0C9447" stroke="#0C9447" stroke-miterlimit="10" points="1270.7,1007 1211.1,1007.2 1240.8,955.5 "/>
<polygon fill="#C9D3CF" points="1300.5,1058.7 1240.9,1058.8 1270.6,1007.2 "/>
<polygon fill="#C9D3CF" points="1211.1,1007.3 1270.7,1007.2 1241,1058.8 "/>
<polygon fill="#0C9447" stroke="#0C9447" stroke-miterlimit="10" points="1449.4,1007 1389.8,1007.2 1419.5,955.5 "/>
<polygon fill="#C9D3CF" points="1479.1,1058.7 1419.6,1058.8 1449.2,1007.2 "/>
<polygon fill="#C9D3CF" points="1389.8,1007.3 1449.4,1007.2 1419.7,1058.8 "/>
<polygon fill="#0C9447" stroke="#0C9447" stroke-miterlimit="10" points="1538.7,955.4 1479.1,955.5 1508.8,903.9 "/>
<polygon fill="#C9D3CF" points="1568.5,1007 1508.9,1007.2 1538.6,955.5 "/>
<polygon fill="#C9D3CF" points="1479.1,955.7 1538.7,955.5 1509,1007.2 "/>
<polygon fill="#0C9447" stroke="#0C9447" stroke-miterlimit="10" points="1628,1007 1568.5,1007.2 1598.1,955.5 "/>
<polygon fill="#C9D3CF" points="1657.8,1058.7 1598.3,1058.8 1627.9,1007.2 "/>
<polygon fill="#C9D3CF" points="1568.5,1007.3 1628,1007.2 1598.4,1058.8 "/>
<polygon fill="#0C9447" stroke="#0C9447" stroke-miterlimit="10" points="1717.4,955.4 1657.8,955.5 1687.5,903.9 "/>
<polygon fill="#C9D3CF" points="1747.2,1007 1687.6,1007.2 1717.3,955.5 "/>
<polygon fill="#C9D3CF" points="1657.8,955.7 1717.4,955.5 1687.7,1007.2 "/>
<polygon fill="#0C9447" stroke="#0C9447" stroke-miterlimit="10" points="1806.7,1007 1747.2,1007.2 1776.8,955.5 "/>
<polygon fill="#C9D3CF" points="1836.5,1058.7 1776.9,1058.8 1806.6,1007.2 "/>
<polygon fill="#C9D3CF" points="1747.2,1007.3 1806.7,1007.2 1777.1,1058.8 "/>
<polygon fill="#0C9447" stroke="#0C9447" stroke-miterlimit="10" points="1896.1,955.4 1836.5,955.5 1866.2,903.9 "/>
<polygon fill="#C9D3CF" points="1925.8,1007 1866.3,1007.2 1895.9,955.5 "/>
<polygon fill="#C9D3CF" points="1836.5,955.7 1896.1,955.5 1866.4,1007.2 "/>
<polygon fill="#0C9447" stroke="#0C9447" stroke-miterlimit="10" points="556,903.7 496.4,903.9 526.1,852.2 "/>
<polygon fill="#C9D3CF" points="585.8,955.4 526.2,955.5 555.9,903.9 "/>
<polygon fill="#C9D3CF" points="496.4,904 556,903.9 526.3,955.5 "/>
<polygon fill="#0C9447" stroke="#0C9447" stroke-miterlimit="10" points="1092,903.7 1032.4,903.9 1062.1,852.2 "/>
<polygon fill="#C9D3CF" points="1121.8,955.4 1062.2,955.5 1091.9,903.9 "/>
<polygon fill="#C9D3CF" points="1032.4,904 1092,903.9 1062.4,955.5 "/>
<polygon fill="#0C9447" stroke="#0C9447" stroke-miterlimit="10" points="1181.3,852.1 1121.8,852.2 1151.4,800.6 "/>
<polygon fill="#C9D3CF" points="1211.1,903.7 1151.6,903.9 1181.2,852.2 "/>
<polygon fill="#C9D3CF" points="1121.8,852.4 1181.3,852.2 1151.7,903.9 "/>
<polygon fill="#0C9447" stroke="#0C9447" stroke-miterlimit="10" points="1002.7,955.4 943.1,955.5 972.8,903.9 "/>
<polygon fill="#C9D3CF" points="1032.4,1007 972.9,1007.2 1002.5,955.5 "/>
<polygon fill="#C9D3CF" points="943.1,955.7 1002.7,955.5 973,1007.2 "/>
<polygon fill="#C9D3CF" points="1032.4,904 1092,903.9 1062.4,955.5 "/>
<polygon fill="#0C9447" stroke="#0C9447" stroke-miterlimit="10" points="1270.7,903.7 1211.1,903.9 1240.8,852.2 "/>
<polygon fill="#C9D3CF" points="1300.5,955.4 1240.9,955.5 1270.6,903.9 "/>
<polygon fill="#C9D3CF" points="1211.1,904 1270.7,903.9 1241,955.5 "/>
<polygon fill="#0C9447" stroke="#0C9447" stroke-miterlimit="10" points="1181.3,955.4 1121.8,955.5 1151.4,903.9 "/>
<polygon fill="#C9D3CF" points="1211.1,1007 1151.6,1007.2 1181.2,955.5 "/>
<polygon fill="#C9D3CF" points="1121.8,955.7 1181.3,955.5 1151.7,1007.2 "/>
<polygon fill="#C9D3CF" points="1300.5,852.1 1240.9,852.2 1270.6,800.6 "/>
<polygon fill="#C9D3CF" points="1211.1,800.7 1270.7,800.6 1241,852.2 "/>
<polygon fill="#0C9447" stroke="#0C9447" stroke-miterlimit="10" points="1360,852.1 1300.5,852.2 1330.1,800.6 "/>
<polygon fill="#C9D3CF" points="1389.8,903.7 1330.2,903.9 1359.9,852.2 "/>
<polygon fill="#C9D3CF" points="1300.5,852.4 1360,852.2 1330.4,903.9 "/>
<polygon fill="#0C9447" stroke="#0C9447" stroke-miterlimit="10" points="1360,955.4 1300.5,955.5 1330.1,903.9 "/>
<polygon fill="#C9D3CF" points="1389.8,1007 1330.2,1007.2 1359.9,955.5 "/>
<polygon fill="#C9D3CF" points="1300.5,955.7 1360,955.5 1330.4,1007.2 "/>
<polygon fill="#C9D3CF" points="1121.8,852.1 1062.2,852.2 1091.9,800.6 "/>
<polygon fill="#C9D3CF" points="1032.4,800.7 1092,800.6 1062.4,852.2 "/>
<polygon fill="#0C9447" stroke="#0C9447" stroke-miterlimit="10" points="1002.7,852.1 943.1,852.2 972.8,800.6 "/>
<polygon fill="#C9D3CF" points="1032.4,903.7 972.9,903.9 1002.5,852.2 "/>
<polygon fill="#C9D3CF" points="943.1,852.4 1002.7,852.2 973,903.9 "/>
<polygon fill="#C9D3CF" points="1479.1,852.1 1419.6,852.2 1449.2,800.6 "/>
<polygon fill="#C9D3CF" points="1389.8,800.7 1449.4,800.6 1419.7,852.2 "/>
<polygon fill="#0C9447" stroke="#0C9447" stroke-miterlimit="10" points="1449.4,903.7 1389.8,903.9 1419.5,852.2 "/>
<polygon fill="#C9D3CF" points="1479.1,955.4 1419.6,955.5 1449.2,903.9 "/>
<polygon fill="#C9D3CF" points="1389.8,904 1449.4,903.9 1419.7,955.5 "/>
<polygon fill="#0C9447" stroke="#0C9447" stroke-miterlimit="10" points="1628,903.7 1568.5,903.9 1598.1,852.2 "/>
<polygon fill="#C9D3CF" points="1657.8,955.4 1598.3,955.5 1627.9,903.9 "/>
<polygon fill="#C9D3CF" points="1568.5,904 1628,903.9 1598.4,955.5 "/>
<polygon fill="#0C9447" stroke="#0C9447" stroke-miterlimit="10" points="1806.7,903.7 1747.2,903.9 1776.8,852.2 "/>
<polygon fill="#C9D3CF" points="1836.5,955.4 1776.9,955.5 1806.6,903.9 "/>
<polygon fill="#C9D3CF" points="1747.2,904 1806.7,903.9 1777.1,955.5 "/>
<polygon fill="#C9D3CF" points="1657.8,852.1 1598.3,852.2 1627.9,800.6 "/>
<polygon fill="#C9D3CF" points="1568.5,800.7 1628,800.6 1598.4,852.2 "/>
<polygon fill="#0C9447" stroke="#0C9447" stroke-miterlimit="10" points="1538.7,852.1 1479.1,852.2 1508.8,800.6 "/>
<polygon fill="#C9D3CF" points="1568.5,903.7 1508.9,903.9 1538.6,852.2 "/>
<polygon fill="#C9D3CF" points="1479.1,852.4 1538.7,852.2 1509,903.9 "/>
<polygon fill="#C9D3CF" points="1568.5,800.7 1628,800.6 1598.4,852.2 "/>
<polygon fill="#C9D3CF" points="1836.5,852.1 1776.9,852.2 1806.6,800.6 "/>
<polygon fill="#C9D3CF" points="1747.2,800.7 1806.7,800.6 1777.1,852.2 "/>
<polygon fill="#0C9447" stroke="#0C9447" stroke-miterlimit="10" points="1717.4,852.1 1657.8,852.2 1687.5,800.6 "/>
<polygon fill="#C9D3CF" points="1747.2,903.7 1687.6,903.9 1717.3,852.2 "/>
<polygon fill="#C9D3CF" points="1657.8,852.4 1717.4,852.2 1687.7,903.9 "/>
<polygon fill="#0C9447" stroke="#0C9447" stroke-miterlimit="10" points="1896.1,852.1 1836.5,852.2 1866.2,800.6 "/>
<polygon fill="#C9D3CF" points="1925.8,903.7 1866.3,903.9 1895.9,852.2 "/>
<polygon fill="#C9D3CF" points="1836.5,852.4 1896.1,852.2 1866.4,903.9 "/>
</svg>
