<?xml version="1.0" encoding="utf-8"?>
<!-- Generator: Adobe Illustrator 18.1.1, SVG Export Plug-In . SVG Version: 6.00 Build 0)  -->
<svg version="1.1" id="Layer_1" xmlns="http://www.w3.org/2000/svg" xmlns:xlink="http://www.w3.org/1999/xlink" x="0px" y="0px"
	 viewBox="0 0 1920 1080" enable-background="new 0 0 1920 1080" xml:space="preserve">
<polygon fill="#0C9447" stroke="#0C9447" stroke-miterlimit="10" points="81,1007 21.5,1007.2 51.1,955.5 "/>
<polygon fill="#C9D3CF" points="110.8,1058.7 51.3,1058.8 80.9,1007.2 "/>
<polygon fill="#C9D3CF" points="21.5,1007.3 81,1007.2 51.4,1058.8 "/>
<polygon fill="#0C9447" stroke="#0C9447" stroke-miterlimit="10" points="198.6,1007 139.1,1007.2 168.7,955.5 "/>
<polygon fill="#C9D3CF" points="228.4,1058.7 168.8,1058.8 198.5,1007.2 "/>
<polygon fill="#C9D3CF" points="139.1,1007.3 198.6,1007.2 169,1058.8 "/>
<polygon fill="#0C9447" stroke="#0C9447" stroke-miterlimit="10" points="198.6,800.4 139.1,800.6 168.7,748.9 "/>
<polygon fill="#C9D3CF" points="228.4,852.1 168.8,852.2 198.5,800.6 "/>
<polygon fill="#C9D3CF" points="139.1,800.7 198.6,800.6 169,852.2 "/>
<polygon fill="#0C9447" stroke="#0C9447" stroke-miterlimit="10" points="288,955.4 228.4,955.5 258.1,903.9 "/>
<polygon fill="#C9D3CF" points="317.7,1007 258.2,1007.2 287.8,955.5 "/>
<polygon fill="#C9D3CF" points="228.4,955.7 288,955.5 258.3,1007.2 "/>
<polygon fill="#0C9447" stroke="#0C9447" stroke-miterlimit="10" points="377.3,1007 317.7,1007.2 347.4,955.5 "/>
<polygon fill="#C9D3CF" points="407.1,1058.7 347.5,1058.8 377.2,1007.2 "/>
<polygon fill="#C9D3CF" points="317.7,1007.3 377.3,1007.2 347.6,1058.8 "/>
<polygon fill="#0C9447" stroke="#0C9447" stroke-miterlimit="10" points="288,852.1 228.4,852.2 258.1,800.6 "/>
<polygon fill="#C9D3CF" points="317.7,903.7 258.2,903.9 287.8,852.2 "/>
<polygon fill="#C9D3CF" points="228.4,852.4 288,852.2 258.3,903.9 "/>
<polygon fill="#0C9447" stroke="#0C9447" stroke-miterlimit="10" points="377.3,903.7 317.7,903.9 347.4,852.2 "/>
<polygon fill="#C9D3CF" points="407.1,955.4 347.5,955.5 377.2,903.9 "/>
<polygon fill="#C9D3CF" points="317.7,904 377.3,903.9 347.6,955.5 "/>
<polygon fill="#0C9447" stroke="#0C9447" stroke-miterlimit="10" points="377.3,800.4 317.7,800.6 347.4,748.9 "/>
<polygon fill="#C9D3CF" points="407.1,852.1 347.5,852.2 377.2,800.6 "/>
<polygon fill="#C9D3CF" points="317.7,800.7 377.3,800.6 347.6,852.2 "/>
<polygon fill="#0C9447" stroke="#0C9447" stroke-miterlimit="10" points="466.6,852.1 407.1,852.2 436.7,800.6 "/>
<polygon fill="#C9D3CF" points="496.4,903.7 436.9,903.9 466.5,852.2 "/>
<polygon fill="#C9D3CF" points="407.1,852.4 466.6,852.2 437,903.9 "/>
<polygon fill="#0C9447" stroke="#0C9447" stroke-miterlimit="10" points="466.6,955.4 407.1,955.5 436.7,903.9 "/>
<polygon fill="#C9D3CF" points="496.4,1007 436.9,1007.2 466.5,955.5 "/>
<polygon fill="#C9D3CF" points="407.1,955.7 466.6,955.5 437,1007.2 "/>
<polygon fill="#0C9447" stroke="#0C9447" stroke-miterlimit="10" points="377.3,697.1 317.7,697.3 347.4,645.6 "/>
<polygon fill="#C9D3CF" points="407.1,748.8 347.5,748.9 377.2,697.3 "/>
<polygon fill="#C9D3CF" points="317.7,697.4 377.3,697.3 347.6,748.9 "/>
<polygon fill="#0C9447" stroke="#0C9447" stroke-miterlimit="10" points="466.6,748.8 407.1,748.9 436.7,697.3 "/>
<polygon fill="#C9D3CF" points="496.4,800.4 436.9,800.6 466.5,748.9 "/>
<polygon fill="#C9D3CF" points="407.1,749.1 466.6,748.9 437,800.6 "/>
<polygon fill="#0C9447" stroke="#0C9447" stroke-miterlimit="10" points="109.3,852.1 49.7,852.2 79.4,800.6 "/>
<polygon fill="#C9D3CF" points="139.1,903.7 79.5,903.9 109.2,852.2 "/>
<polygon fill="#C9D3CF" points="49.7,852.4 109.3,852.2 79.6,903.9 "/>
<polygon fill="#0C9447" stroke="#0C9447" stroke-miterlimit="10" points="198.6,903.7 139.1,903.9 168.7,852.2 "/>
<polygon fill="#C9D3CF" points="228.4,955.4 168.8,955.5 198.5,903.9 "/>
<polygon fill="#C9D3CF" points="139.1,904 198.6,903.9 169,955.5 "/>
<polygon fill="#0C9447" stroke="#0C9447" stroke-miterlimit="10" points="109.3,748.8 49.7,748.9 79.4,697.3 "/>
<polygon fill="#C9D3CF" points="139.1,800.4 79.5,800.6 109.2,748.9 "/>
<polygon fill="#C9D3CF" points="49.7,749.1 109.3,748.9 79.6,800.6 "/>
<polygon fill="#0C9447" stroke="#0C9447" stroke-miterlimit="10" points="109.3,542.2 49.7,542.3 79.4,490.7 "/>
<polygon fill="#C9D3CF" points="139.1,593.8 79.5,594 109.2,542.3 "/>
<polygon fill="#C9D3CF" points="49.7,542.5 109.3,542.3 79.6,594 "/>
<polygon fill="#0C9447" stroke="#0C9447" stroke-miterlimit="10" points="198.6,697.1 139.1,697.3 168.7,645.6 "/>
<polygon fill="#C9D3CF" points="228.4,748.8 168.8,748.9 198.5,697.3 "/>
<polygon fill="#C9D3CF" points="139.1,697.4 198.6,697.3 169,748.9 "/>
<polygon fill="#0C9447" stroke="#0C9447" stroke-miterlimit="10" points="288,748.8 228.4,748.9 258.1,697.3 "/>
<polygon fill="#C9D3CF" points="317.7,800.4 258.2,800.6 287.8,748.9 "/>
<polygon fill="#C9D3CF" points="228.4,749.1 288,748.9 258.3,800.6 "/>
<polygon fill="#0C9447" stroke="#0C9447" stroke-miterlimit="10" points="198.6,593.8 139.1,594 168.7,542.3 "/>
<polygon fill="#C9D3CF" points="228.4,645.5 168.8,645.6 198.5,594 "/>
<polygon fill="#C9D3CF" points="139.1,594.1 198.6,594 169,645.6 "/>
<polygon fill="#0C9447" stroke="#0C9447" stroke-miterlimit="10" points="288,645.5 228.4,645.6 258.1,594 "/>
<polygon fill="#C9D3CF" points="317.7,697.1 258.2,697.3 287.8,645.6 "/>
<polygon fill="#C9D3CF" points="228.4,645.8 288,645.6 258.3,697.3 "/>
<polygon fill="#0C9447" stroke="#0C9447" stroke-miterlimit="10" points="109.3,645.5 49.7,645.6 79.4,594 "/>
<polygon fill="#C9D3CF" points="139.1,697.1 79.5,697.3 109.2,645.6 "/>
<polygon fill="#C9D3CF" points="49.7,645.8 109.3,645.6 79.6,697.3 "/>
<polygon fill="#0C9447" stroke="#0C9447" stroke-miterlimit="10" points="109.3,955.4 49.7,955.5 79.4,903.9 "/>
<polygon fill="#C9D3CF" points="139.1,1007 79.5,1007.2 109.2,955.5 "/>
<polygon fill="#C9D3CF" points="49.7,955.7 109.3,955.5 79.6,1007.2 "/>
</svg>
